<?xml version="1.0" standalone="no"?>
<!DOCTYPE svg PUBLIC "-//W3C//DTD SVG 20010904//EN"
 "http://www.w3.org/TR/2001/REC-SVG-20010904/DTD/svg10.dtd">
<svg version="1.0" xmlns="http://www.w3.org/2000/svg"
 width="150.000000pt" height="150.000000pt" viewBox="0 0 150.000000 150.000000"
 preserveAspectRatio="xMidYMid meet">

<g transform="translate(0.000000,150.000000) scale(0.100000,-0.100000)"
fill="#000000" stroke="none">
<path d="M565 1226 c-16 -7 -45 -26 -64 -42 -97 -81 -95 -259 4 -408 40 -61
149 -167 195 -191 l30 -16 0 39 c0 31 -5 41 -26 53 -41 22 -141 136 -169 194
-32 65 -50 158 -41 217 9 58 49 120 95 147 40 23 23 28 -24 7z"/>
<path d="M414 1162 c-22 -16 -50 -51 -64 -78 -34 -66 -34 -191 -1 -275 46
-120 142 -238 251 -312 l55 -37 3 32 c3 26 -2 36 -20 48 -47 30 -140 126 -178
182 -104 156 -117 329 -33 428 19 22 33 40 30 40 -2 0 -22 -13 -43 -28z"/>
<path d="M890 1141 c0 -6 42 -52 94 -103 73 -73 101 -109 130 -169 21 -42 40
-95 43 -117 3 -23 10 -42 14 -42 12 0 11 18 -2 82 -24 110 -105 233 -207 313
-58 46 -72 53 -72 36z"/>
<path d="M1021 1094 c30 -32 68 -78 84 -101 30 -46 43 -57 24 -20 -26 49 -72
105 -117 142 l-47 39 56 -60z"/>
<path d="M800 1088 c0 -15 13 -32 36 -47 57 -39 168 -164 202 -229 18 -34 41
-93 51 -132 17 -68 18 -70 35 -51 42 47 -35 229 -146 347 -60 63 -151 134
-171 134 -4 0 -7 -10 -7 -22z"/>
<path d="M269 1008 c-33 -61 -33 -198 0 -279 46 -118 166 -265 260 -317 l41
-23 0 23 c0 16 -17 38 -55 70 -82 69 -142 144 -188 236 -37 75 -41 93 -45 172
-3 52 0 102 7 121 17 48 5 47 -20 -3z"/>
<path d="M720 1003 c0 -22 13 -38 57 -73 105 -82 200 -224 218 -323 7 -36 10
-38 34 -32 14 4 28 8 29 10 8 7 -31 122 -60 179 -35 69 -147 191 -218 236 -26
17 -50 30 -53 30 -4 0 -7 -12 -7 -27z"/>
<path d="M650 901 c0 -24 15 -45 78 -108 48 -48 90 -103 111 -143 38 -72 46
-80 80 -80 20 0 22 3 16 27 -24 96 -152 260 -244 311 l-41 23 0 -30z"/>
<path d="M1150 915 c0 -5 5 -17 10 -25 5 -8 10 -10 10 -5 0 6 -5 17 -10 25 -5
8 -10 11 -10 5z"/>
<path d="M201 810 c-3 -148 84 -312 221 -418 30 -23 58 -42 61 -42 17 0 4 29
-18 44 -45 30 -145 139 -180 196 -40 67 -64 136 -75 215 l-7 60 -2 -55z"/>
<path d="M1117 562 c-22 -24 -24 -60 -3 -43 11 9 29 61 21 61 -1 0 -9 -8 -18
-18z"/>
<path d="M230 567 c0 -20 74 -118 126 -167 l59 -55 -57 60 c-31 33 -73 85 -92
115 -20 30 -36 51 -36 47z"/>
<path d="M1033 518 c-24 -12 -38 -58 -17 -58 19 0 44 29 44 51 0 10 -1 19 -2
18 -2 0 -13 -5 -25 -11z"/>
<path d="M890 481 c0 -28 3 -31 31 -31 27 0 30 3 27 28 -2 21 -9 28 -30 30
-25 3 -28 0 -28 -27z"/>
<path d="M1079 453 c-13 -16 -12 -17 4 -4 16 13 21 21 13 21 -2 0 -10 -8 -17
-17z"/>
<path d="M989 399 c-11 -11 -18 -23 -15 -26 9 -9 34 5 46 26 14 28 -3 28 -31
0z"/>
<path d="M870 370 c-10 -18 -8 -20 19 -20 24 0 41 14 41 36 0 14 -51 1 -60
-16z"/>
<path d="M810 295 c-10 -12 -9 -15 7 -15 10 0 28 7 39 15 18 14 18 14 -7 15
-15 0 -32 -7 -39 -15z"/>
</g>
</svg>
